<svg width="144" height="45" viewBox="0 0 144 45" fill="none" xmlns="http://www.w3.org/2000/svg">
<path d="M43.3228 32.0962H38.9336L31.0272 18.5996V32.0962H26.9239V11.594H31.3132L39.2195 25.1048V11.594H43.3228V32.0962ZM64.4827 36.1995H59.8218L57.3627 32.5108C57.2293 32.5299 57.1006 32.5394 56.9767 32.5394C56.8623 32.5394 56.7479 32.5394 56.6335 32.5394C55.6613 32.5394 54.7225 32.4107 53.817 32.1534C52.921 31.9056 52.0775 31.5529 51.2864 31.0954C50.5048 30.6283 49.7899 30.0708 49.1418 29.4226C48.4937 28.7745 47.9361 28.0596 47.469 27.278C47.0115 26.4869 46.6541 25.6434 46.3967 24.7474C46.1489 23.8419 46.025 22.9031 46.025 21.9309C46.025 20.9586 46.1489 20.0198 46.3967 19.1143C46.6541 18.2088 47.0115 17.3653 47.469 16.5837C47.9361 15.8021 48.4937 15.0873 49.1418 14.4391C49.7899 13.791 50.5048 13.2381 51.2864 12.7806C52.0775 12.3231 52.921 11.9705 53.817 11.7226C54.7225 11.4653 55.6613 11.3366 56.6335 11.3366C57.6058 11.3366 58.5446 11.4653 59.4501 11.7226C60.3556 11.9705 61.1991 12.3231 61.9807 12.7806C62.7623 13.2381 63.4772 13.791 64.1253 14.4391C64.7734 15.0873 65.3263 15.8021 65.7838 16.5837C66.2413 17.3653 66.594 18.2088 66.8418 19.1143C67.0991 20.0198 67.2278 20.9586 67.2278 21.9309C67.2278 22.9412 67.0848 23.9229 66.7989 24.8761C66.5225 25.8292 66.1269 26.7204 65.6122 27.5497C65.0975 28.3694 64.4732 29.1128 63.7393 29.78C63.0149 30.4472 62.2047 31.0048 61.3087 31.4528L64.4827 36.1995ZM63.1531 21.9309C63.1531 21.0349 62.9815 20.1914 62.6384 19.4003C62.2953 18.5996 61.8282 17.9086 61.2373 17.3272C60.6558 16.7362 59.9648 16.2692 59.1642 15.926C58.373 15.5829 57.5295 15.4113 56.6335 15.4113C55.7281 15.4113 54.8798 15.5829 54.0886 15.926C53.2975 16.2692 52.6065 16.7362 52.0155 17.3272C51.4246 17.9086 50.9575 18.5996 50.6144 19.4003C50.2713 20.1914 50.0997 21.0349 50.0997 21.9309C50.0997 22.8268 50.2713 23.6704 50.6144 24.4615C50.9575 25.2431 51.4246 25.9293 52.0155 26.5203C52.6065 27.1112 53.2975 27.5783 54.0886 27.9214C54.8798 28.2645 55.7281 28.4361 56.6335 28.4361C57.5295 28.4361 58.373 28.2645 59.1642 27.9214C59.9648 27.5783 60.6558 27.1112 61.2373 26.5203C61.8282 25.9293 62.2953 25.2431 62.6384 24.4615C62.9815 23.6704 63.1531 22.8268 63.1531 21.9309ZM85.228 11.594L78.494 32.0962H74.3907L67.6853 11.594H72.3462L76.4352 25.2764L80.5385 11.594H85.228ZM86.0001 17.7418C86.0001 16.8935 86.1621 16.0976 86.4862 15.3541C86.8102 14.6107 87.2487 13.9625 87.8015 13.4097C88.3639 12.8474 89.0168 12.4041 89.7602 12.0801C90.5037 11.756 91.2996 11.594 92.1479 11.594H101.555V15.6973H92.1479C91.8619 15.6973 91.595 15.7497 91.3472 15.8545C91.0994 15.9594 90.8802 16.1071 90.6896 16.2978C90.5085 16.4789 90.3655 16.6933 90.2606 16.9411C90.1558 17.1889 90.1034 17.4558 90.1034 17.7418C90.1034 18.0277 90.1558 18.2994 90.2606 18.5567C90.3655 18.8045 90.5085 19.0238 90.6896 19.2144C90.8802 19.3955 91.0994 19.5385 91.3472 19.6433C91.595 19.7482 91.8619 19.8006 92.1479 19.8006H96.2512C97.0995 19.8006 97.8954 19.9626 98.6388 20.2867C99.3918 20.6012 100.045 21.0397 100.598 21.602C101.16 22.1549 101.598 22.8078 101.913 23.5607C102.237 24.3042 102.399 25.1001 102.399 25.9484C102.399 26.7967 102.237 27.5926 101.913 28.336C101.598 29.0795 101.16 29.7324 100.598 30.2947C100.045 30.8476 99.3918 31.286 98.6388 31.6101C97.8954 31.9342 97.0995 32.0962 96.2512 32.0962H87.1438V27.9929H96.2512C96.5371 27.9929 96.804 27.9405 97.0518 27.8356C97.2996 27.7308 97.5141 27.5878 97.6952 27.4067C97.8858 27.2161 98.0336 26.9968 98.1384 26.749C98.2433 26.5012 98.2957 26.2343 98.2957 25.9484C98.2957 25.6624 98.2433 25.3956 98.1384 25.1477C98.0336 24.8999 97.8858 24.6855 97.6952 24.5044C97.5141 24.3137 97.2996 24.166 97.0518 24.0611C96.804 23.9563 96.5371 23.9039 96.2512 23.9039H92.1479C91.2996 23.9039 90.5037 23.7418 89.7602 23.4178C89.0168 23.0937 88.3639 22.6553 87.8015 22.1024C87.2487 21.5401 86.8102 20.8872 86.4862 20.1437C86.1621 19.3907 86.0001 18.5901 86.0001 17.7418ZM113.422 32.0962H109.333V15.6973H103.171V11.594H119.57V15.6973H113.422V32.0962Z" fill="#F2F2EC"/>
<rect x="1.75076" y="1.75076" width="140.498" height="41.1429" rx="20.5714" stroke="#F2F2EC" stroke-width="3.50152"/>
</svg>
